<svg xmlns="http://www.w3.org/2000/svg" viewBox="0 0 16 16">
    <defs>
        <style>
            .cls-1{fill:#f3f2f2}.cls-2{fill:#293688}.cls-3{fill:#f7981d}
        </style>
    </defs>
    <g id="visa_2_" data-name="visa (2)" transform="translate(-.01)">
        <circle id="Ellipse_5" cx="8" cy="8" r="8" class="cls-1" data-name="Ellipse 5" transform="translate(.01 .001)"/>
        <g id="Group_7893" data-name="Group 7893" transform="translate(2.668 5.862)">
            <path id="Path_4348" d="M175.483 178.988l.612-3.615h.991l-.612 3.615z" class="cls-2" data-name="Path 4348" transform="translate(-172.217 -175.315)"/>
            <path id="Path_4349" d="M224.215 173.8a2.574 2.574 0 0 0-.888-.152c-.979 0-1.669.49-1.675 1.193-.005.519.492.809.869.982s.515.29.514.448c0 .242-.308.353-.593.353a2.092 2.092 0 0 1-.933-.19l-.128-.058-.139.809a3.152 3.152 0 0 0 1.1.193c1.042 0 1.718-.485 1.726-1.235 0-.411-.26-.724-.832-.982-.346-.167-.559-.279-.556-.448 0-.15.18-.311.568-.311a1.838 1.838 0 0 1 .742.138l.089.042.135-.783z" class="cls-2" data-name="Path 4349" transform="translate(-216.43 -173.647)"/>
            <path id="Path_4350" d="M302.671 175.373a.493.493 0 0 0-.513.308l-1.469 3.307h1.049l.2-.554h1.262l.116.554h.933l-.816-3.615h-.758zm-.45 2.338l.395-1.01s.081-.209.131-.345l.067.311.229 1.044h-.823z" class="cls-2" data-name="Path 4350" transform="translate(-293.196 -175.315)"/>
            <path id="Path_4351" d="M80.2 177.851l-.087-.5a2.824 2.824 0 0 0-1.371-1.516l.876 3.148h1.05l1.574-3.615h-1.053z" class="cls-2" data-name="Path 4351" transform="translate(-78.739 -175.315)"/>
        </g>
        <g id="Group_7894" data-name="Group 7894" transform="translate(.911 5.92)">
            <path id="Path_4352" d="M46.823 175.373v.058a3.384 3.384 0 0 1 2.449 1.924l-.359-1.674a.426.426 0 0 0-.457-.308z" class="cls-3" data-name="Path 4352" transform="translate(-46.144 -175.373)"/>
            <path id="Path_4353" d="M33.794 350.545a8 8 0 0 0 7.1-4.312H26.7a8 8 0 0 0 7.094 4.312z" class="cls-3" data-name="Path 4353" transform="translate(-26.696 -340.465)"/>
        </g>
        <path id="Path_4354" d="M35.584 0a8 8 0 0 0-7.036 4.189H42.62A8 8 0 0 0 35.584 0z" class="cls-2" data-name="Path 4354" transform="translate(-27.575)"/>
    </g>
</svg>
