<svg xmlns="http://www.w3.org/2000/svg" id="mastercard_1_" data-name="mastercard (1)" viewBox="0 0 16 16">
    <defs>
        <style>
            .cls-1{fill:#3c80ad}.cls-2{fill:#931b1d}.cls-3{fill:#f16622}.cls-4{fill:#f7981d}.cls-5{fill:#cb2026}.cls-6{fill:#fff}
        </style>
    </defs>
    <circle id="Ellipse_4" cx="8" cy="8" r="8" class="cls-1" data-name="Ellipse 4"/>
    <path id="Path_4334" d="M54.941 121.955a3.685 3.685 0 1 0 2.5 6.409 3.7 3.7 0 0 0 .373-.395h-.753a3.567 3.567 0 0 1-.274-.38h1.3a3.685 3.685 0 0 0 .214-.394h-1.73a3.589 3.589 0 0 1-.154-.387h2.035a3.677 3.677 0 0 0 .189-1.169 3.717 3.717 0 0 0-.085-.789h-2.247a3.753 3.753 0 0 1 .1-.387h2.041a3.694 3.694 0 0 0-.159-.395h-1.72a3.555 3.555 0 0 1 .211-.387h1.3a3.661 3.661 0 0 0-.285-.394h-.724a3.368 3.368 0 0 1 .369-.372 3.657 3.657 0 0 0-2.474-.961z" class="cls-2" data-name="Path 4334" transform="translate(-49.557 -117.838)"/>
    <path id="Path_4335" d="M204.731 125.641a3.677 3.677 0 1 1-7.353 0 3.677 3.677 0 1 1 7.353 0z" class="cls-3" data-name="Path 4335" transform="translate(-190.715 -117.838)"/>
    <path id="Path_4336" d="M204.731 126.853a3.677 3.677 0 1 1-7.353 0 3.677 3.677 0 1 1 7.353 0z" class="cls-4" data-name="Path 4336" transform="translate(-190.715 -119.009)"/>
    <path id="Path_4337" d="M54.941 123.193a3.685 3.685 0 1 0 2.5 6.409 3.642 3.642 0 0 0 .373-.395h-.753a3.538 3.538 0 0 1-.274-.379h1.3a3.718 3.718 0 0 0 .214-.395h-1.73a3.617 3.617 0 0 1-.154-.387h2.035a3.679 3.679 0 0 0 .189-1.169 3.716 3.716 0 0 0-.085-.789h-2.247a3.753 3.753 0 0 1 .1-.387h2.041a3.7 3.7 0 0 0-.159-.395h-1.72a3.588 3.588 0 0 1 .211-.387h1.3a3.728 3.728 0 0 0-.285-.395h-.724a3.412 3.412 0 0 1 .369-.372 3.657 3.657 0 0 0-2.474-.96z" class="cls-5" data-name="Path 4337" transform="translate(-49.557 -119.034)"/>
    <g id="Group_7892" data-name="Group 7892" transform="translate(2.08 6.892)">
        <path id="Path_4338" d="M182.033 210.7l.049-.333c-.027 0-.066.011-.1.011-.136 0-.151-.073-.143-.126l.11-.68h.207l.05-.369h-.2l.04-.229h-.392c-.008.009-.231 1.29-.231 1.446a.291.291 0 0 0 .312.332 1.029 1.029 0 0 0 .298-.052z" class="cls-6" data-name="Path 4338" transform="translate(-177.383 -208.809)"/>
        <path id="Path_4339" d="M203.035 215.38a.615.615 0 0 0 .676.686.991.991 0 0 0 .413-.065l.069-.378a1.211 1.211 0 0 1-.416.1c-.42 0-.347-.314-.347-.314h.8a2.844 2.844 0 0 0 .051-.358.526.526 0 0 0-.558-.573c-.397-.003-.688.422-.688.902zm.687-.554c.221 0 .18.249.18.269h-.435c0-.026.041-.269.255-.269z" class="cls-6" data-name="Path 4339" transform="translate(-198.261 -214.126)"/>
        <path id="Path_4340" d="M266.829 206.039l.07-.428a.937.937 0 0 1-.324.1.388.388 0 0 1-.389-.441c0-.463.239-.718.505-.718a.7.7 0 0 1 .359.112l.064-.415a1.4 1.4 0 0 0-.441-.1c-.452 0-.892.392-.892 1.131 0 .489.238.812.7.812a1.8 1.8 0 0 0 .348-.053z" class="cls-6" data-name="Path 4340" transform="translate(-258.89 -204.149)"/>
        <path id="Path_4341" d="M114.765 214.654a1.352 1.352 0 0 0-.474.086l-.057.338a1.238 1.238 0 0 1 .427-.069c.146 0 .252.016.252.135a.253.253 0 0 1-.013.1s-.115-.01-.168-.01c-.338 0-.694.145-.694.582a.372.372 0 0 0 .378.423.508.508 0 0 0 .4-.18l-.013.15h.345l.154-1.081a.463.463 0 0 0-.537-.474zm.084.879c.007.066-.041.376-.277.376a.143.143 0 0 1-.153-.148c0-.107.058-.236.345-.236a.256.256 0 0 1 .085.008z" class="cls-6" data-name="Path 4341" transform="translate(-112.268 -214.299)"/>
        <path id="Path_4342" d="M149.791 216.3c.088 0 .592.023.592-.5 0-.487-.466-.391-.466-.587 0-.1.076-.128.215-.128.055 0 .268.018.268.018l.05-.347a1.83 1.83 0 0 0-.361-.031c-.29 0-.584.115-.584.512 0 .45.49.4.49.593 0 .126-.137.137-.243.137a1.272 1.272 0 0 1-.348-.06l-.052.343a1.224 1.224 0 0 0 .439.05z" class="cls-6" data-name="Path 4342" transform="translate(-146.39 -214.371)"/>
        <path id="Path_4343" d="M360.786 205.421l-.084.525a.517.517 0 0 0-.378-.2c-.359 0-.658.433-.658.931 0 .322.159.636.485.636a.488.488 0 0 0 .364-.164l-.017.14h.381l.3-1.866zm-.182 1.024c0 .207-.1.484-.315.484-.141 0-.207-.118-.207-.3 0-.3.136-.505.308-.505.142-.005.21.092.21.321z" class="cls-6" data-name="Path 4343" transform="translate(-349.604 -205.377)"/>
        <path id="Path_4344" d="M62 207.276l.239-1.408.035 1.408h.27l.5-1.408-.223 1.408h.4l.309-1.868h-.62l-.386 1.146-.02-1.146h-.571l-.313 1.868z" class="cls-6" data-name="Path 4344" transform="translate(-61.619 -205.366)"/>
        <path id="Path_4345" d="M239.949 216.722c.114-.649.135-1.177.407-1.08a1.521 1.521 0 0 1 .145-.455.408.408 0 0 0-.076-.005c-.175 0-.3.24-.3.24l.035-.22h-.365l-.244 1.521z" class="cls-6" data-name="Path 4345" transform="translate(-233.54 -214.81)"/>
        <path id="Path_4346" d="M302.728 214.654a1.351 1.351 0 0 0-.474.086l-.057.338a1.235 1.235 0 0 1 .426-.069c.146 0 .252.016.252.135a.25.25 0 0 1-.013.1s-.115-.01-.169-.01c-.339 0-.694.145-.694.582a.372.372 0 0 0 .378.423.507.507 0 0 0 .4-.18l-.013.15h.345l.154-1.081a.463.463 0 0 0-.535-.474zm.084.879c.007.066-.041.376-.277.376a.143.143 0 0 1-.153-.148c0-.107.058-.236.345-.236a.256.256 0 0 1 .085.008z" class="cls-6" data-name="Path 4346" transform="translate(-293.886 -214.299)"/>
        <path id="Path_4347" d="M337.3 216.722c.114-.649.135-1.177.407-1.08a1.512 1.512 0 0 1 .146-.455.413.413 0 0 0-.076-.005c-.175 0-.305.24-.305.24l.035-.22h-.365l-.244 1.521h.4z" class="cls-6" data-name="Path 4347" transform="translate(-327.601 -214.81)"/>
    </g>
</svg>
